<svg xmlns="http://www.w3.org/2000/svg" xmlns:xlink="http://www.w3.org/1999/xlink" width="500" zoomAndPan="magnify" viewBox="0 0 375 374.999991" height="500" preserveAspectRatio="xMidYMid meet" version="1.2"><defs><clipPath id="eb58515596"><path d="M 132.109375 117 L 224.359375 117 L 224.359375 205.839844 L 132.109375 205.839844 Z M 132.109375 117 "/></clipPath><clipPath id="b5236d33ee"><path d="M 155 94.839844 L 202 94.839844 L 202 137 L 155 137 Z M 155 94.839844 "/></clipPath><clipPath id="93d8cdaff8"><path d="M 150 157 L 251 157 L 251 216 L 150 216 Z M 150 157 "/></clipPath><clipPath id="d7b421301c"><path d="M 149.644531 157.945312 L 246.539062 141.667969 L 262.191406 234.863281 L 165.300781 251.140625 Z M 149.644531 157.945312 "/></clipPath><clipPath id="2058b78913"><path d="M 149.644531 157.945312 L 246.539062 141.667969 L 262.191406 234.863281 L 165.300781 251.140625 Z M 149.644531 157.945312 "/></clipPath><clipPath id="9f79748efd"><path d="M 188 218 L 214 218 L 214 244 L 188 244 Z M 188 218 "/></clipPath><clipPath id="18770a7a0b"><path d="M 149.644531 157.945312 L 246.539062 141.667969 L 262.191406 234.863281 L 165.300781 251.140625 Z M 149.644531 157.945312 "/></clipPath><clipPath id="3ddc7c51bf"><path d="M 149.644531 157.945312 L 246.539062 141.667969 L 262.191406 234.863281 L 165.300781 251.140625 Z M 149.644531 157.945312 "/></clipPath><clipPath id="cb1d42836e"><path d="M 222 212 L 248 212 L 248 238 L 222 238 Z M 222 212 "/></clipPath><clipPath id="e6e300ffcc"><path d="M 149.644531 157.945312 L 246.539062 141.667969 L 262.191406 234.863281 L 165.300781 251.140625 Z M 149.644531 157.945312 "/></clipPath><clipPath id="4221cb6e0c"><path d="M 149.644531 157.945312 L 246.539062 141.667969 L 262.191406 234.863281 L 165.300781 251.140625 Z M 149.644531 157.945312 "/></clipPath><clipPath id="bad1c66c1c"><path d="M 231.140625 141.671875 L 262.207031 141.671875 L 262.207031 172.738281 L 231.140625 172.738281 Z M 231.140625 141.671875 "/></clipPath><clipPath id="2aa1e24bfd"><path d="M 246.671875 141.671875 C 238.09375 141.671875 231.140625 148.625 231.140625 157.207031 C 231.140625 165.785156 238.09375 172.738281 246.671875 172.738281 C 255.253906 172.738281 262.207031 165.785156 262.207031 157.207031 C 262.207031 148.625 255.253906 141.671875 246.671875 141.671875 Z M 246.671875 141.671875 "/></clipPath><clipPath id="61c113e812"><path d="M 235.3125 145.847656 L 258.03125 145.847656 L 258.03125 168.566406 L 235.3125 168.566406 Z M 235.3125 145.847656 "/></clipPath><clipPath id="3267e7d67f"><path d="M 246.671875 145.847656 C 240.398438 145.847656 235.3125 150.933594 235.3125 157.207031 C 235.3125 163.480469 240.398438 168.566406 246.671875 168.566406 C 252.945312 168.566406 258.03125 163.480469 258.03125 157.207031 C 258.03125 150.933594 252.945312 145.847656 246.671875 145.847656 Z M 246.671875 145.847656 "/></clipPath></defs><g id="93f12ef267"><g clip-rule="nonzero" clip-path="url(#eb58515596)"><path style=" stroke:none;fill-rule:nonzero;fill:#1d2b84;fill-opacity:1;" d="M 217.550781 205.480469 L 139.378906 205.480469 C 137.480469 205.480469 135.636719 204.691406 134.335938 203.3125 C 133.03125 201.929688 132.34375 200.050781 132.449219 198.152344 L 136.5625 124.085938 C 136.769531 120.402344 139.808594 117.523438 143.492188 117.523438 L 213.433594 117.523438 C 217.121094 117.523438 220.160156 120.402344 220.363281 124.085938 L 224.480469 198.152344 C 224.585938 200.050781 223.898438 201.929688 222.589844 203.3125 C 221.285156 204.691406 219.449219 205.480469 217.550781 205.480469 Z M 143.492188 122.152344 C 142.265625 122.152344 141.25 123.117188 141.183594 124.339844 L 137.070312 198.410156 C 137.035156 199.050781 137.257812 199.664062 137.699219 200.128906 C 138.144531 200.59375 138.734375 200.851562 139.378906 200.851562 L 217.550781 200.851562 C 218.195312 200.851562 218.789062 200.59375 219.230469 200.128906 C 219.671875 199.664062 219.898438 199.050781 219.859375 198.410156 L 215.746094 124.339844 C 215.679688 123.117188 214.660156 122.152344 213.433594 122.152344 Z M 143.492188 122.152344 "/></g><g clip-rule="nonzero" clip-path="url(#b5236d33ee)"><path style=" stroke:none;fill-rule:nonzero;fill:#1d2b84;fill-opacity:1;" d="M 199.296875 136.152344 C 198.019531 136.152344 196.980469 135.117188 196.980469 133.839844 L 196.980469 117.949219 C 196.980469 107.738281 188.675781 99.433594 178.464844 99.433594 C 168.25 99.433594 159.945312 107.738281 159.945312 117.949219 L 159.945312 133.839844 C 159.945312 135.117188 158.910156 136.152344 157.632812 136.152344 C 156.355469 136.152344 155.316406 135.117188 155.316406 133.839844 L 155.316406 117.949219 C 155.316406 105.1875 165.699219 94.804688 178.464844 94.804688 C 191.226562 94.804688 201.609375 105.1875 201.609375 117.949219 L 201.609375 133.839844 C 201.609375 135.117188 200.574219 136.152344 199.296875 136.152344 Z M 199.296875 136.152344 "/></g><g clip-rule="nonzero" clip-path="url(#93d8cdaff8)"><g clip-rule="nonzero" clip-path="url(#d7b421301c)"><g clip-rule="nonzero" clip-path="url(#2058b78913)"><path style=" stroke:none;fill-rule:evenodd;fill:#fd8100;fill-opacity:1;" d="M 239.675781 160.972656 L 182.839844 170.523438 C 182.441406 170.589844 182.070312 170.730469 181.726562 170.945312 C 181.382812 171.160156 181.09375 171.433594 180.859375 171.761719 C 180.625 172.089844 180.460938 172.453125 180.371094 172.847656 C 180.277344 173.242188 180.265625 173.640625 180.335938 174.039062 C 180.402344 174.4375 180.542969 174.808594 180.757812 175.152344 C 180.972656 175.496094 181.242188 175.785156 181.574219 176.019531 C 181.902344 176.253906 182.265625 176.417969 182.660156 176.507812 C 183.054688 176.601562 183.453125 176.613281 183.851562 176.542969 L 240.6875 166.996094 C 240.96875 166.949219 241.246094 166.9375 241.527344 166.964844 C 241.8125 166.988281 242.085938 167.046875 242.351562 167.140625 C 242.617188 167.238281 242.867188 167.363281 243.101562 167.523438 C 243.335938 167.679688 243.546875 167.867188 243.734375 168.082031 C 243.917969 168.292969 244.074219 168.527344 244.203125 168.777344 C 244.328125 169.03125 244.421875 169.296875 244.480469 169.574219 C 244.542969 169.847656 244.566406 170.128906 244.550781 170.410156 C 244.539062 170.695312 244.492188 170.96875 244.410156 171.242188 C 242.128906 178.726562 239.800781 194.957031 238.171875 200.273438 C 237.988281 200.875 237.660156 201.382812 237.1875 201.796875 C 236.714844 202.210938 236.167969 202.46875 235.550781 202.570312 L 193.707031 209.601562 C 193.378906 209.65625 193.050781 209.664062 192.71875 209.621094 C 192.390625 209.574219 192.074219 209.484375 191.773438 209.347656 C 191.46875 209.207031 191.195312 209.027344 190.945312 208.808594 C 190.695312 208.585938 190.488281 208.332031 190.3125 208.046875 C 190.308594 208.011719 173.804688 167.371094 173.804688 167.371094 C 173.46875 166.542969 173.066406 165.75 172.597656 164.992188 C 172.128906 164.230469 171.601562 163.515625 171.011719 162.847656 C 170.421875 162.179688 169.777344 161.5625 169.085938 161.003906 C 168.390625 160.441406 167.652344 159.945312 166.875 159.507812 C 166.097656 159.074219 165.285156 158.707031 164.445312 158.410156 C 163.605469 158.109375 162.746094 157.882812 161.867188 157.730469 C 160.988281 157.578125 160.101562 157.5 159.210938 157.5 C 158.316406 157.496094 157.433594 157.570312 156.550781 157.714844 L 152.8125 158.34375 C 152.402344 158.394531 152.023438 158.523438 151.667969 158.734375 C 151.3125 158.945312 151.015625 159.21875 150.777344 159.554688 C 150.539062 159.886719 150.378906 160.257812 150.296875 160.660156 C 150.214844 161.0625 150.214844 161.46875 150.304688 161.871094 C 150.371094 162.269531 150.511719 162.640625 150.726562 162.980469 C 150.945312 163.324219 151.214844 163.613281 151.546875 163.847656 C 151.875 164.082031 152.238281 164.246094 152.632812 164.335938 C 153.023438 164.429688 153.421875 164.441406 153.820312 164.375 L 157.566406 163.746094 C 158.105469 163.65625 158.648438 163.609375 159.195312 163.613281 C 159.738281 163.613281 160.28125 163.660156 160.820312 163.753906 C 161.359375 163.847656 161.886719 163.984375 162.402344 164.167969 C 162.917969 164.347656 163.414062 164.574219 163.890625 164.839844 C 164.367188 165.105469 164.820312 165.410156 165.246094 165.753906 C 165.671875 166.09375 166.0625 166.472656 166.425781 166.878906 C 166.789062 167.289062 167.113281 167.726562 167.402344 168.191406 C 167.691406 168.65625 167.9375 169.140625 168.140625 169.648438 L 184.707031 210.46875 C 184.746094 210.5625 184.789062 210.660156 184.839844 210.75 C 185.300781 211.625 185.886719 212.40625 186.597656 213.09375 C 187.308594 213.78125 188.105469 214.34375 188.992188 214.78125 C 189.878906 215.21875 190.8125 215.507812 191.789062 215.652344 C 192.765625 215.796875 193.742188 215.785156 194.71875 215.625 L 236.5625 208.59375 C 237.425781 208.449219 238.25 208.1875 239.042969 207.8125 C 239.832031 207.4375 240.554688 206.960938 241.214844 206.386719 C 241.871094 205.808594 242.4375 205.152344 242.914062 204.417969 C 243.386719 203.683594 243.753906 202.898438 244.007812 202.058594 C 245.636719 196.746094 247.953125 180.519531 250.246094 173.027344 C 250.363281 172.644531 250.457031 172.257812 250.523438 171.863281 C 250.589844 171.46875 250.632812 171.070312 250.652344 170.671875 C 250.667969 170.273438 250.660156 169.871094 250.625 169.472656 C 250.59375 169.074219 250.535156 168.679688 250.449219 168.289062 C 250.367188 167.898438 250.257812 167.515625 250.125 167.136719 C 249.992188 166.761719 249.835938 166.394531 249.65625 166.035156 C 249.476562 165.679688 249.277344 165.332031 249.050781 165.003906 C 248.828125 164.671875 248.585938 164.355469 248.320312 164.054688 C 248.058594 163.753906 247.777344 163.46875 247.476562 163.207031 C 247.175781 162.941406 246.863281 162.695312 246.53125 162.472656 C 246.199219 162.246094 245.855469 162.042969 245.5 161.863281 C 245.144531 161.683594 244.777344 161.523438 244.398438 161.390625 C 244.023438 161.257812 243.640625 161.144531 243.25 161.0625 C 242.855469 160.976562 242.460938 160.914062 242.0625 160.878906 C 241.664062 160.84375 241.265625 160.835938 240.867188 160.851562 C 240.46875 160.867188 240.070312 160.90625 239.675781 160.972656 Z M 239.675781 160.972656 "/></g></g></g><g clip-rule="nonzero" clip-path="url(#9f79748efd)"><g clip-rule="nonzero" clip-path="url(#18770a7a0b)"><g clip-rule="nonzero" clip-path="url(#3ddc7c51bf)"><path style=" stroke:none;fill-rule:evenodd;fill:#fd8100;fill-opacity:1;" d="M 198.585938 218.605469 C 197.777344 218.738281 196.988281 218.953125 196.222656 219.242188 C 195.457031 219.535156 194.726562 219.898438 194.035156 220.332031 C 193.339844 220.765625 192.695312 221.265625 192.097656 221.828125 C 191.5 222.386719 190.964844 223.003906 190.488281 223.667969 C 190.015625 224.335938 189.609375 225.042969 189.273438 225.792969 C 188.9375 226.539062 188.675781 227.3125 188.492188 228.109375 C 188.308594 228.90625 188.207031 229.714844 188.179688 230.535156 C 188.15625 231.355469 188.210938 232.167969 188.347656 232.976562 C 188.484375 233.78125 188.699219 234.570312 188.988281 235.335938 C 189.277344 236.101562 189.640625 236.832031 190.078125 237.527344 C 190.511719 238.21875 191.007812 238.867188 191.570312 239.460938 C 192.132812 240.058594 192.746094 240.59375 193.414062 241.070312 C 194.082031 241.542969 194.789062 241.949219 195.535156 242.285156 C 196.285156 242.621094 197.054688 242.882812 197.855469 243.066406 C 198.652344 243.25 199.460938 243.351562 200.28125 243.375 C 201.097656 243.402344 201.914062 243.34375 202.71875 243.210938 C 203.527344 243.074219 204.316406 242.859375 205.082031 242.570312 C 205.847656 242.277344 206.578125 241.914062 207.269531 241.480469 C 207.964844 241.046875 208.609375 240.546875 209.207031 239.988281 C 209.804688 239.425781 210.339844 238.808594 210.8125 238.144531 C 211.289062 237.476562 211.695312 236.769531 212.03125 236.019531 C 212.367188 235.273438 212.625 234.5 212.808594 233.703125 C 212.992188 232.90625 213.097656 232.097656 213.121094 231.277344 C 213.144531 230.457031 213.089844 229.644531 212.953125 228.835938 C 212.816406 228.03125 212.601562 227.242188 212.3125 226.476562 C 212.019531 225.710938 211.65625 224.984375 211.222656 224.289062 C 210.789062 223.59375 210.289062 222.949219 209.730469 222.355469 C 209.167969 221.757812 208.554688 221.222656 207.886719 220.746094 C 207.21875 220.273438 206.511719 219.867188 205.765625 219.53125 C 205.019531 219.195312 204.246094 218.9375 203.449219 218.75 C 202.648438 218.566406 201.84375 218.464844 201.023438 218.4375 C 200.203125 218.414062 199.390625 218.46875 198.585938 218.605469 Z M 201.707031 237.1875 C 201.292969 237.257812 200.878906 237.285156 200.460938 237.273438 C 200.042969 237.261719 199.628906 237.207031 199.222656 237.113281 C 198.816406 237.019531 198.421875 236.886719 198.039062 236.714844 C 197.65625 236.542969 197.296875 236.335938 196.957031 236.09375 C 196.617188 235.851562 196.300781 235.578125 196.015625 235.273438 C 195.730469 234.96875 195.476562 234.640625 195.253906 234.285156 C 195.03125 233.933594 194.847656 233.558594 194.699219 233.167969 C 194.550781 232.777344 194.441406 232.375 194.371094 231.964844 C 194.300781 231.550781 194.273438 231.136719 194.285156 230.71875 C 194.296875 230.300781 194.351562 229.886719 194.445312 229.480469 C 194.539062 229.074219 194.671875 228.679688 194.84375 228.296875 C 195.015625 227.914062 195.21875 227.554688 195.464844 227.214844 C 195.707031 226.875 195.980469 226.558594 196.285156 226.273438 C 196.585938 225.984375 196.917969 225.730469 197.269531 225.507812 C 197.625 225.289062 198 225.101562 198.390625 224.953125 C 198.78125 224.804688 199.179688 224.695312 199.59375 224.628906 C 200.007812 224.558594 200.421875 224.527344 200.839844 224.542969 C 201.257812 224.554688 201.667969 224.605469 202.078125 224.699219 C 202.484375 224.792969 202.878906 224.925781 203.261719 225.097656 C 203.640625 225.269531 204.003906 225.476562 204.34375 225.71875 C 204.683594 225.960938 204.996094 226.234375 205.285156 226.539062 C 205.570312 226.84375 205.824219 227.171875 206.046875 227.527344 C 206.269531 227.878906 206.457031 228.253906 206.605469 228.644531 C 206.753906 229.035156 206.863281 229.4375 206.929688 229.847656 C 207 230.261719 207.027344 230.675781 207.015625 231.09375 C 207.003906 231.511719 206.949219 231.925781 206.855469 232.332031 C 206.761719 232.738281 206.628906 233.132812 206.457031 233.515625 C 206.285156 233.898438 206.078125 234.257812 205.835938 234.597656 C 205.59375 234.941406 205.320312 235.253906 205.015625 235.539062 C 204.710938 235.828125 204.382812 236.082031 204.027344 236.304688 C 203.675781 236.527344 203.300781 236.710938 202.910156 236.859375 C 202.519531 237.007812 202.117188 237.117188 201.707031 237.1875 Z M 201.707031 237.1875 "/></g></g></g><g clip-rule="nonzero" clip-path="url(#cb1d42836e)"><g clip-rule="nonzero" clip-path="url(#e6e300ffcc)"><g clip-rule="nonzero" clip-path="url(#4221cb6e0c)"><path style=" stroke:none;fill-rule:evenodd;fill:#fd8100;fill-opacity:1;" d="M 232.875 212.84375 C 232.066406 212.980469 231.277344 213.191406 230.511719 213.484375 C 229.746094 213.773438 229.015625 214.136719 228.324219 214.570312 C 227.628906 215.007812 226.984375 215.503906 226.386719 216.066406 C 225.789062 216.628906 225.253906 217.242188 224.78125 217.910156 C 224.304688 218.578125 223.898438 219.285156 223.5625 220.03125 C 223.226562 220.777344 222.96875 221.550781 222.78125 222.347656 C 222.597656 223.148438 222.496094 223.957031 222.472656 224.773438 C 222.445312 225.59375 222.503906 226.40625 222.636719 227.214844 C 222.773438 228.023438 222.988281 228.808594 223.277344 229.574219 C 223.570312 230.339844 223.929688 231.070312 224.367188 231.765625 C 224.800781 232.460938 225.296875 233.105469 225.859375 233.703125 C 226.421875 234.296875 227.035156 234.832031 227.703125 235.308594 C 228.371094 235.785156 229.078125 236.191406 229.824219 236.523438 C 230.574219 236.859375 231.34375 237.121094 232.144531 237.304688 C 232.941406 237.488281 233.75 237.59375 234.570312 237.617188 C 235.386719 237.640625 236.203125 237.585938 237.007812 237.449219 C 237.816406 237.3125 238.605469 237.101562 239.371094 236.808594 C 240.136719 236.519531 240.867188 236.15625 241.558594 235.722656 C 242.253906 235.285156 242.898438 234.789062 243.496094 234.226562 C 244.09375 233.664062 244.628906 233.050781 245.101562 232.382812 C 245.578125 231.714844 245.984375 231.007812 246.320312 230.261719 C 246.65625 229.511719 246.914062 228.742188 247.097656 227.941406 C 247.28125 227.144531 247.386719 226.335938 247.410156 225.515625 C 247.433594 224.699219 247.378906 223.882812 247.242188 223.078125 C 247.105469 222.269531 246.894531 221.484375 246.601562 220.71875 C 246.3125 219.953125 245.949219 219.222656 245.511719 218.527344 C 245.078125 217.832031 244.582031 217.1875 244.019531 216.59375 C 243.457031 215.996094 242.84375 215.460938 242.175781 214.988281 C 241.507812 214.511719 240.800781 214.105469 240.054688 213.769531 C 239.308594 213.433594 238.535156 213.175781 237.738281 212.992188 C 236.941406 212.808594 236.132812 212.703125 235.3125 212.679688 C 234.496094 212.652344 233.679688 212.707031 232.875 212.84375 Z M 235.996094 231.425781 C 235.582031 231.496094 235.167969 231.523438 234.75 231.511719 C 234.332031 231.5 233.917969 231.445312 233.511719 231.351562 C 233.105469 231.257812 232.710938 231.125 232.328125 230.957031 C 231.949219 230.785156 231.585938 230.578125 231.246094 230.335938 C 230.90625 230.089844 230.59375 229.816406 230.304688 229.515625 C 230.019531 229.210938 229.765625 228.878906 229.542969 228.527344 C 229.320312 228.171875 229.136719 227.800781 228.988281 227.40625 C 228.839844 227.015625 228.730469 226.617188 228.660156 226.203125 C 228.589844 225.789062 228.5625 225.375 228.574219 224.957031 C 228.585938 224.539062 228.640625 224.128906 228.734375 223.71875 C 228.828125 223.3125 228.960938 222.917969 229.132812 222.535156 C 229.304688 222.15625 229.511719 221.792969 229.753906 221.453125 C 229.996094 221.113281 230.269531 220.800781 230.574219 220.511719 C 230.878906 220.226562 231.207031 219.972656 231.5625 219.75 C 231.914062 219.527344 232.289062 219.34375 232.679688 219.195312 C 233.070312 219.046875 233.472656 218.9375 233.882812 218.867188 C 234.296875 218.796875 234.710938 218.769531 235.128906 218.78125 C 235.546875 218.792969 235.960938 218.847656 236.367188 218.941406 C 236.773438 219.035156 237.167969 219.167969 237.550781 219.335938 C 237.929688 219.507812 238.292969 219.714844 238.632812 219.957031 C 238.972656 220.199219 239.289062 220.472656 239.574219 220.777344 C 239.859375 221.082031 240.117188 221.410156 240.335938 221.765625 C 240.558594 222.121094 240.746094 222.492188 240.894531 222.882812 C 241.042969 223.273438 241.152344 223.675781 241.21875 224.089844 C 241.289062 224.5 241.316406 224.917969 241.304688 225.335938 C 241.292969 225.753906 241.238281 226.164062 241.144531 226.574219 C 241.050781 226.980469 240.917969 227.375 240.746094 227.753906 C 240.574219 228.136719 240.367188 228.5 240.125 228.839844 C 239.882812 229.179688 239.609375 229.492188 239.304688 229.78125 C 239 230.066406 238.671875 230.320312 238.316406 230.542969 C 237.964844 230.765625 237.589844 230.949219 237.199219 231.101562 C 236.808594 231.25 236.40625 231.359375 235.996094 231.425781 Z M 235.996094 231.425781 "/></g></g></g><g clip-rule="nonzero" clip-path="url(#bad1c66c1c)"><g clip-rule="nonzero" clip-path="url(#2aa1e24bfd)"><path style=" stroke:none;fill-rule:nonzero;fill:#ffffff;fill-opacity:1;" d="M 231.140625 141.671875 L 262.207031 141.671875 L 262.207031 172.738281 L 231.140625 172.738281 Z M 231.140625 141.671875 "/></g></g><g clip-rule="nonzero" clip-path="url(#61c113e812)"><g clip-rule="nonzero" clip-path="url(#3267e7d67f)"><path style=" stroke:none;fill-rule:nonzero;fill:#ff3131;fill-opacity:1;" d="M 235.3125 145.847656 L 258.03125 145.847656 L 258.03125 168.566406 L 235.3125 168.566406 Z M 235.3125 145.847656 "/></g></g></g></svg>